<?xml version="1.0" standalone="no"?>
<svg viewBox="0 0 200 200" xmlns="http://www.w3.org/2000/svg">
  <path fill="#08BDBA" d="M50.2,-72.8C65.4,-68.5,78.1,-55,85.5,-39C92.9,-23,95,-4.5,88,9.4C80.9,23.3,64.7,32.7,52,42C39.2,51.4,29.9,60.7,17.8,67.3C5.7,73.8,-9.1,77.7,-24,75.9C-38.8,74.2,-53.7,66.8,-63.3,55.1C-72.8,43.5,-77.1,27.6,-73.8,14C-70.5,0.4,-59.6,-11,-55.1,-26.9C-50.5,-42.9,-52.3,-63.5,-44.2,-71C-36,-78.6,-18,-73,-0.2,-72.7C17.6,-72.3,35.1,-77.1,50.2,-72.8Z" transform="translate(100 100)" />
</svg>
