<?xml version="1.0" standalone="no"?>
<svg viewBox="0 0 200 200" xmlns="http://www.w3.org/2000/svg">
  <path fill="#08BDBA" d="M43.1,-65.4C52.7,-61,55.1,-43.6,58,-28.9C61,-14.3,64.4,-2.3,66.2,12C67.9,26.2,68,42.6,59.2,49.5C50.4,56.4,32.7,53.8,17.1,58.7C1.4,63.5,-12.3,75.9,-22.8,74.3C-33.4,72.8,-40.9,57.3,-49.5,44.5C-58.2,31.7,-68,21.4,-68.4,10.6C-68.8,-0.3,-59.8,-11.7,-51.7,-21.2C-43.7,-30.8,-36.6,-38.4,-28.1,-43.3C-19.7,-48.2,-9.8,-50.5,3.5,-55.9C16.8,-61.2,33.5,-69.8,43.1,-65.4Z" transform="translate(100 100)" />
</svg>
