<?xml version="1.0" standalone="no"?>
<svg viewBox="0 0 200 200" xmlns="http://www.w3.org/2000/svg">
  <path fill="#08BDBA" d="M33.5,-53.9C43.7,-45.5,52.6,-36.8,59.8,-25.9C67,-15,72.4,-1.9,68.9,8.6C65.3,19,52.7,26.9,44.1,40C35.5,53.1,30.9,71.5,20.2,79.7C9.4,87.9,-7.7,86,-21.9,79.5C-36.1,73.1,-47.6,62.1,-52.4,49.4C-57.3,36.7,-55.6,22.2,-57.3,8.4C-59,-5.4,-64.2,-18.5,-61.6,-29.7C-58.9,-40.8,-48.5,-50,-36.9,-57.9C-25.4,-65.8,-12.7,-72.4,-0.5,-71.5C11.6,-70.7,23.2,-62.4,33.5,-53.9Z" transform="translate(100 100)" />
</svg>
