<?xml version="1.0" standalone="no"?>
<svg viewBox="0 0 200 200" xmlns="http://www.w3.org/2000/svg">
  <path fill="#08BDBA" d="M40,-63.5C53.5,-53.6,67.1,-45.2,76.9,-32.6C86.7,-19.9,92.7,-2.9,89.5,12.2C86.3,27.3,74,40.3,61,49.7C48,59.1,34.3,64.7,19.8,70.3C5.3,75.8,-10.1,81.2,-22.9,77.6C-35.7,73.9,-45.9,61.3,-50.5,48.1C-55,34.9,-54,21.3,-53.1,9.3C-52.3,-2.7,-51.7,-13,-49.2,-24.1C-46.7,-35.2,-42.3,-47.1,-33.8,-59.3C-25.3,-71.4,-12.6,-83.9,0.3,-84.4C13.3,-84.9,26.5,-73.4,40,-63.5Z" transform="translate(100 100)" />
</svg>
