<?xml version="1.0" standalone="no"?>
<svg viewBox="0 0 200 200" xmlns="http://www.w3.org/2000/svg">
  <path fill="#08BDBA" d="M29.2,-50.8C39.3,-39,50,-33.3,58.6,-24C67.2,-14.6,73.8,-1.5,70.5,8.9C67.1,19.4,53.7,27.2,43.7,36.7C33.6,46.2,26.9,57.4,16.2,65C5.6,72.6,-9,76.5,-18.8,70.6C-28.5,64.6,-33.4,48.9,-44,37.6C-54.7,26.3,-71.2,19.4,-77.3,8.2C-83.4,-3,-79.2,-18.6,-70.7,-30.3C-62.3,-42,-49.6,-49.7,-37.1,-60.4C-24.6,-71.1,-12.3,-84.8,-1.4,-82.7C9.6,-80.5,19.1,-62.6,29.2,-50.8Z" transform="translate(100 100)" />
</svg>
