<?xml version="1.0" standalone="no"?>
<svg viewBox="0 0 200 200" xmlns="http://www.w3.org/2000/svg">
  <path fill="#08BDBA" d="M43.6,-72.5C53.9,-61.2,57.9,-44.7,65.8,-29.5C73.7,-14.2,85.6,-0.1,82.2,10.6C78.8,21.3,60.1,28.6,47.5,38.5C34.8,48.4,28.2,60.9,18.8,63.3C9.4,65.7,-2.7,58.1,-12.8,51.6C-22.9,45,-31,39.4,-44.2,33.2C-57.4,27.1,-75.9,20.3,-83.1,8.4C-90.4,-3.5,-86.5,-20.6,-77.9,-34C-69.3,-47.3,-56,-56.9,-42.3,-66.7C-28.5,-76.5,-14.2,-86.5,1.2,-88.4C16.6,-90.2,33.2,-83.9,43.6,-72.5Z" transform="translate(100 100)" />
</svg>
